<svg xmlns="http://www.w3.org/2000/svg" viewBox="0 0 100 100" preserveAspectRatio="xMidYMid" width="261" height="261" style="shape-rendering: auto; display: block; background: rgb(255, 254, 254);" xmlns:xlink="http://www.w3.org/1999/xlink"><g><g transform="rotate(0 50 50)">
  <rect fill="#f47721" height="1" width="13" ry="0.5" rx="6.5" y="32.5" x="43.5">
    <animate repeatCount="indefinite" begin="-0.3470213996529786s" dur="0.40485829959514175s" keyTimes="0;1" values="1;0" attributeName="opacity"></animate>
  </rect>
</g><g transform="rotate(51.42857142857143 50 50)">
  <rect fill="#f47721" height="1" width="13" ry="0.5" rx="6.5" y="32.5" x="43.5">
    <animate repeatCount="indefinite" begin="-0.2891844997108155s" dur="0.40485829959514175s" keyTimes="0;1" values="1;0" attributeName="opacity"></animate>
  </rect>
</g><g transform="rotate(102.85714285714286 50 50)">
  <rect fill="#f47721" height="1" width="13" ry="0.5" rx="6.5" y="32.5" x="43.5">
    <animate repeatCount="indefinite" begin="-0.2313475997686524s" dur="0.40485829959514175s" keyTimes="0;1" values="1;0" attributeName="opacity"></animate>
  </rect>
</g><g transform="rotate(154.28571428571428 50 50)">
  <rect fill="#f47721" height="1" width="13" ry="0.5" rx="6.5" y="32.5" x="43.5">
    <animate repeatCount="indefinite" begin="-0.1735106998264893s" dur="0.40485829959514175s" keyTimes="0;1" values="1;0" attributeName="opacity"></animate>
  </rect>
</g><g transform="rotate(205.71428571428572 50 50)">
  <rect fill="#f47721" height="1" width="13" ry="0.5" rx="6.5" y="32.5" x="43.5">
    <animate repeatCount="indefinite" begin="-0.1156737998843262s" dur="0.40485829959514175s" keyTimes="0;1" values="1;0" attributeName="opacity"></animate>
  </rect>
</g><g transform="rotate(257.14285714285717 50 50)">
  <rect fill="#f47721" height="1" width="13" ry="0.5" rx="6.5" y="32.5" x="43.5">
    <animate repeatCount="indefinite" begin="-0.0578368999421631s" dur="0.40485829959514175s" keyTimes="0;1" values="1;0" attributeName="opacity"></animate>
  </rect>
</g><g transform="rotate(308.57142857142856 50 50)">
  <rect fill="#f47721" height="1" width="13" ry="0.5" rx="6.5" y="32.5" x="43.5">
    <animate repeatCount="indefinite" begin="0s" dur="0.40485829959514175s" keyTimes="0;1" values="1;0" attributeName="opacity"></animate>
  </rect>
</g><g></g></g><!-- [ldio] generated by https://loading.io --></svg>