<?xml version="1.0" encoding="utf-8"?>
<!-- Generator: Adobe Illustrator 27.5.0, SVG Export Plug-In . SVG Version: 6.00 Build 0)  -->
<svg version="1.1" xmlns="http://www.w3.org/2000/svg" xmlns:xlink="http://www.w3.org/1999/xlink" x="0px" y="0px"
	 viewBox="0 0 500 500" style="enable-background:new 0 0 500 500;" xml:space="preserve">
<g id="BACKGROUND">
	<rect style="fill:#FFFFFF;" width="500" height="500"/>
</g>
<g id="OBJECTS">
	<g>
		<g>
			<g>
				<g>
					<path style="fill:#FFB30F;" d="M80.051,50.333c-0.721,0-1.305-0.584-1.305-1.305V33.675c0-0.721,0.584-1.305,1.305-1.305
						c0.721,0,1.305,0.584,1.305,1.305v15.353C81.355,49.749,80.771,50.333,80.051,50.333z"/>
				</g>
				<g>
					<path style="fill:#81BC00;" d="M70.479,52.022c-0.533,0-1.033-0.329-1.226-0.859l-5.251-14.427
						c-0.246-0.677,0.103-1.426,0.78-1.673c0.677-0.246,1.426,0.102,1.673,0.78l5.251,14.427c0.246,0.677-0.103,1.426-0.78,1.673
						C70.778,51.997,70.628,52.022,70.479,52.022z"/>
				</g>
				<g>
					<path style="fill:#81BC00;" d="M62.064,56.882c-0.373,0-0.743-0.158-1-0.466l-9.868-11.761
						c-0.463-0.552-0.391-1.375,0.16-1.838c0.553-0.463,1.376-0.391,1.838,0.161l9.869,11.761c0.463,0.552,0.391,1.375-0.16,1.838
						C62.657,56.782,62.36,56.882,62.064,56.882z"/>
				</g>
				<g>
					<path style="fill:#81BC00;" d="M55.815,64.328c-0.221,0-0.445-0.057-0.651-0.175l-13.296-7.677
						c-0.624-0.36-0.838-1.158-0.477-1.782c0.361-0.624,1.158-0.839,1.782-0.477l13.296,7.677c0.624,0.36,0.838,1.158,0.477,1.782
						C56.704,64.094,56.266,64.328,55.815,64.328z"/>
				</g>
				<g>
					<path style="fill:#81BC00;" d="M52.494,73.461c-0.076,0-0.152-0.007-0.228-0.02l-15.119-2.665
						c-0.71-0.125-1.184-0.802-1.058-1.511c0.125-0.711,0.809-1.184,1.511-1.058l15.119,2.666c0.71,0.125,1.184,0.802,1.058,1.511
						C53.666,73.016,53.115,73.461,52.494,73.461z"/>
				</g>
				<g>
					<path style="fill:#81BC00;" d="M37.372,85.846c-0.621,0-1.172-0.445-1.283-1.079c-0.125-0.709,0.349-1.386,1.058-1.511
						l15.12-2.666c0.711-0.126,1.387,0.349,1.511,1.058c0.125,0.709-0.349,1.386-1.058,1.511L37.6,85.826
						C37.524,85.84,37.448,85.846,37.372,85.846z"/>
				</g>
				<g>
					<path style="fill:#81BC00;" d="M42.524,99.99c-0.451,0-0.889-0.234-1.131-0.653c-0.361-0.624-0.146-1.422,0.477-1.782
						l13.296-7.677c0.625-0.361,1.422-0.146,1.782,0.477c0.361,0.624,0.146,1.422-0.477,1.782l-13.296,7.676
						C42.969,99.933,42.745,99.99,42.524,99.99z"/>
				</g>
				<g>
					<path style="fill:#81BC00;" d="M52.197,111.518c-0.296,0-0.593-0.1-0.838-0.305c-0.552-0.463-0.624-1.286-0.161-1.838
						l9.868-11.761c0.462-0.552,1.286-0.624,1.838-0.16c0.552,0.463,0.624,1.286,0.16,1.838l-9.869,11.761
						C52.939,111.36,52.57,111.518,52.197,111.518z"/>
				</g>
				<g>
					<path style="fill:#81BC00;" d="M65.233,119.044c-0.148,0-0.299-0.025-0.446-0.079c-0.677-0.247-1.026-0.995-0.78-1.673
						l5.251-14.427c0.246-0.677,0.994-1.026,1.673-0.78c0.677,0.247,1.026,0.995,0.78,1.673l-5.251,14.427
						C66.266,118.715,65.766,119.044,65.233,119.044z"/>
				</g>
				<g>
					<path style="fill:#81BC00;" d="M80.055,121.656c-0.721,0-1.305-0.584-1.305-1.305v-15.353c0-0.721,0.584-1.305,1.305-1.305
						c0.721,0,1.305,0.584,1.305,1.305v15.353C81.36,121.072,80.776,121.656,80.055,121.656z"/>
				</g>
				<g>
					<path style="fill:#81BC00;" d="M94.878,119.042c-0.533,0-1.033-0.329-1.226-0.859L88.4,103.756
						c-0.246-0.677,0.103-1.426,0.78-1.673c0.678-0.247,1.426,0.103,1.673,0.78l5.251,14.427c0.246,0.677-0.103,1.426-0.78,1.673
						C95.177,119.017,95.026,119.042,94.878,119.042z"/>
				</g>
				<g>
					<path style="fill:#81BC00;" d="M107.913,111.515c-0.373,0-0.742-0.159-1-0.466l-9.869-11.761
						c-0.463-0.552-0.391-1.375,0.161-1.838c0.552-0.464,1.376-0.391,1.838,0.161l9.868,11.761c0.463,0.552,0.391,1.375-0.16,1.838
						C108.506,111.415,108.208,111.515,107.913,111.515z"/>
				</g>
				<g>
					<path style="fill:#81BC00;" d="M117.585,99.985c-0.221,0-0.446-0.056-0.651-0.175l-13.296-7.676
						c-0.624-0.36-0.838-1.158-0.477-1.782c0.36-0.623,1.158-0.839,1.782-0.477l13.296,7.676c0.624,0.36,0.838,1.158,0.477,1.782
						C118.475,99.751,118.036,99.985,117.585,99.985z"/>
				</g>
				<g>
					<path style="fill:#81BC00;" d="M122.735,85.842c-0.076,0-0.152-0.007-0.228-0.02l-15.119-2.666
						c-0.71-0.125-1.184-0.802-1.058-1.511c0.125-0.71,0.807-1.183,1.511-1.059l15.119,2.666c0.71,0.125,1.184,0.802,1.058,1.511
						C123.906,85.396,123.356,85.842,122.735,85.842z"/>
				</g>
				<g>
					<path style="fill:#FFB30F;" d="M107.611,73.457c-0.621,0-1.172-0.446-1.283-1.079c-0.125-0.709,0.349-1.386,1.058-1.511
						l15.119-2.666c0.711-0.125,1.387,0.349,1.511,1.058c0.125,0.709-0.349,1.386-1.058,1.511l-15.119,2.666
						C107.763,73.45,107.686,73.457,107.611,73.457z"/>
				</g>
				<g>
					<path style="fill:#FFB30F;" d="M104.289,64.324c-0.451,0-0.889-0.234-1.131-0.653c-0.361-0.624-0.147-1.422,0.477-1.782
						l13.296-7.676c0.625-0.361,1.422-0.146,1.782,0.477c0.361,0.624,0.146,1.422-0.477,1.782l-13.296,7.676
						C104.735,64.267,104.51,64.324,104.289,64.324z"/>
				</g>
				<g>
					<path style="fill:#FFB30F;" d="M98.039,56.879c-0.296,0-0.593-0.1-0.838-0.305c-0.552-0.463-0.624-1.286-0.161-1.838
						l9.869-11.761c0.463-0.552,1.285-0.624,1.838-0.16c0.552,0.463,0.624,1.286,0.161,1.838l-9.868,11.761
						C98.782,56.72,98.412,56.879,98.039,56.879z"/>
				</g>
				<g>
					<path style="fill:#FFB30F;" d="M89.622,52.02c-0.148,0-0.299-0.026-0.446-0.079c-0.677-0.247-1.026-0.995-0.78-1.673
						l5.251-14.427c0.247-0.677,0.997-1.024,1.673-0.78c0.677,0.247,1.026,0.995,0.78,1.673l-5.251,14.427
						C90.656,51.691,90.155,52.02,89.622,52.02z"/>
				</g>
			</g>
			<circle style="fill:#FFB30F;" cx="80.053" cy="77.013" r="30.168"/>
			
				<ellipse transform="matrix(0.7071 -0.7071 0.7071 0.7071 -31.0096 79.1629)" style="fill:#FFFFFF;" cx="80.053" cy="77.013" rx="33.407" ry="33.407"/>
			<circle style="fill:#81BC00;" cx="80.053" cy="77.013" r="26.134"/>
			
				<ellipse transform="matrix(0.2274 -0.9738 0.9738 0.2274 -13.1496 137.4517)" style="fill:none;stroke:#FFFFFF;stroke-width:1.1524;stroke-miterlimit:10;" cx="80.053" cy="77.013" rx="23.637" ry="23.637"/>
			<text transform="matrix(1 0 0 1 66.4114 81.1623)" style="fill:#FFFFFF; font-family:'Rubik-Regular'; font-size:13.8292px;">25%</text>
		</g>
		<g>
			<g>
				<g>
					<path style="fill:#FFB30F;" d="M192.413,50.333c-0.721,0-1.305-0.584-1.305-1.305V33.675c0-0.721,0.584-1.305,1.305-1.305
						c0.721,0,1.305,0.584,1.305,1.305v15.353C193.717,49.749,193.133,50.333,192.413,50.333z"/>
				</g>
				<g>
					<path style="fill:#81BC00;" d="M182.841,52.022c-0.533,0-1.033-0.329-1.226-0.859l-5.251-14.427
						c-0.246-0.677,0.103-1.426,0.78-1.673c0.678-0.246,1.426,0.102,1.673,0.78l5.251,14.427c0.246,0.677-0.103,1.426-0.78,1.673
						C183.14,51.997,182.99,52.022,182.841,52.022z"/>
				</g>
				<g>
					<path style="fill:#81BC00;" d="M174.426,56.882c-0.372,0-0.742-0.158-1-0.466l-9.868-11.761
						c-0.463-0.552-0.391-1.375,0.16-1.838c0.553-0.463,1.376-0.391,1.838,0.161l9.868,11.761c0.463,0.552,0.391,1.375-0.161,1.838
						C175.019,56.782,174.721,56.882,174.426,56.882z"/>
				</g>
				<g>
					<path style="fill:#81BC00;" d="M168.177,64.328c-0.221,0-0.446-0.057-0.651-0.175l-13.296-7.677
						c-0.624-0.36-0.838-1.158-0.477-1.782c0.361-0.624,1.158-0.839,1.782-0.477l13.296,7.677c0.624,0.36,0.838,1.158,0.477,1.782
						C169.066,64.094,168.628,64.328,168.177,64.328z"/>
				</g>
				<g>
					<path style="fill:#81BC00;" d="M164.856,73.461c-0.076,0-0.152-0.007-0.228-0.02l-15.12-2.665
						c-0.71-0.125-1.184-0.802-1.058-1.511c0.125-0.711,0.809-1.184,1.511-1.058l15.119,2.666c0.71,0.125,1.184,0.802,1.058,1.511
						C166.028,73.016,165.477,73.461,164.856,73.461z"/>
				</g>
				<g>
					<path style="fill:#81BC00;" d="M149.734,85.846c-0.621,0-1.172-0.445-1.283-1.079c-0.125-0.709,0.349-1.386,1.058-1.511
						l15.119-2.666c0.711-0.126,1.387,0.349,1.511,1.058c0.125,0.709-0.349,1.386-1.058,1.511l-15.12,2.666
						C149.886,85.84,149.809,85.846,149.734,85.846z"/>
				</g>
				<g>
					<path style="fill:#81BC00;" d="M154.886,99.99c-0.451,0-0.889-0.234-1.131-0.653c-0.361-0.624-0.146-1.422,0.477-1.782
						l13.296-7.677c0.625-0.361,1.422-0.146,1.782,0.477c0.361,0.624,0.147,1.422-0.477,1.782l-13.296,7.676
						C155.331,99.933,155.107,99.99,154.886,99.99z"/>
				</g>
				<g>
					<path style="fill:#81BC00;" d="M164.559,111.518c-0.296,0-0.593-0.1-0.838-0.305c-0.552-0.463-0.624-1.286-0.161-1.838
						l9.869-11.761c0.462-0.552,1.286-0.624,1.838-0.16c0.552,0.463,0.624,1.286,0.161,1.838l-9.868,11.761
						C165.301,111.36,164.931,111.518,164.559,111.518z"/>
				</g>
				<g>
					<path style="fill:#81BC00;" d="M177.595,119.044c-0.148,0-0.299-0.025-0.446-0.079c-0.677-0.247-1.026-0.995-0.78-1.673
						l5.251-14.427c0.246-0.677,0.994-1.026,1.673-0.78c0.677,0.247,1.026,0.995,0.78,1.673l-5.251,14.427
						C178.628,118.715,178.128,119.044,177.595,119.044z"/>
				</g>
				<g>
					<path style="fill:#FFB30F;" d="M192.417,121.656c-0.721,0-1.305-0.584-1.305-1.305v-15.353c0-0.721,0.584-1.305,1.305-1.305
						c0.721,0,1.305,0.584,1.305,1.305v15.353C193.722,121.072,193.138,121.656,192.417,121.656z"/>
				</g>
				<g>
					<path style="fill:#FFB30F;" d="M207.239,119.042c-0.533,0-1.033-0.329-1.226-0.859l-5.251-14.427
						c-0.246-0.677,0.103-1.426,0.78-1.673c0.678-0.247,1.426,0.103,1.673,0.78l5.251,14.427c0.246,0.677-0.103,1.426-0.78,1.673
						C207.538,119.017,207.388,119.042,207.239,119.042z"/>
				</g>
				<g>
					<path style="fill:#FFB30F;" d="M220.275,111.515c-0.372,0-0.742-0.159-1-0.466l-9.869-11.761
						c-0.463-0.552-0.391-1.375,0.161-1.838c0.553-0.464,1.376-0.391,1.838,0.161l9.869,11.761c0.463,0.552,0.391,1.375-0.161,1.838
						C220.868,111.415,220.57,111.515,220.275,111.515z"/>
				</g>
				<g>
					<path style="fill:#FFB30F;" d="M229.947,99.985c-0.221,0-0.445-0.056-0.651-0.175l-13.296-7.676
						c-0.624-0.36-0.838-1.158-0.477-1.782c0.36-0.623,1.158-0.839,1.782-0.477L230.6,97.55c0.624,0.36,0.838,1.158,0.477,1.782
						C230.836,99.751,230.398,99.985,229.947,99.985z"/>
				</g>
				<g>
					<path style="fill:#FFB30F;" d="M235.096,85.842c-0.076,0-0.152-0.007-0.228-0.02l-15.119-2.666
						c-0.71-0.125-1.184-0.802-1.058-1.511c0.125-0.71,0.807-1.183,1.511-1.059l15.119,2.666c0.71,0.125,1.184,0.802,1.058,1.511
						C236.268,85.396,235.717,85.842,235.096,85.842z"/>
				</g>
				<g>
					<path style="fill:#FFB30F;" d="M219.973,73.457c-0.621,0-1.172-0.446-1.283-1.079c-0.125-0.709,0.349-1.386,1.058-1.511
						l15.119-2.666c0.711-0.125,1.387,0.349,1.511,1.058c0.125,0.709-0.349,1.386-1.058,1.511l-15.119,2.666
						C220.124,73.45,220.048,73.457,219.973,73.457z"/>
				</g>
				<g>
					<path style="fill:#FFB30F;" d="M216.651,64.324c-0.451,0-0.889-0.234-1.131-0.653c-0.361-0.624-0.147-1.422,0.477-1.782
						l13.296-7.676c0.625-0.361,1.422-0.146,1.782,0.477c0.361,0.624,0.147,1.422-0.477,1.782l-13.296,7.676
						C217.097,64.267,216.872,64.324,216.651,64.324z"/>
				</g>
				<g>
					<path style="fill:#FFB30F;" d="M210.401,56.879c-0.296,0-0.593-0.1-0.838-0.305c-0.552-0.463-0.624-1.286-0.161-1.838
						l9.869-11.761c0.462-0.552,1.285-0.624,1.838-0.16c0.552,0.463,0.624,1.286,0.161,1.838l-9.869,11.761
						C211.144,56.72,210.774,56.879,210.401,56.879z"/>
				</g>
				<g>
					<path style="fill:#FFB30F;" d="M201.984,52.02c-0.148,0-0.299-0.026-0.446-0.079c-0.677-0.247-1.026-0.995-0.78-1.673
						l5.251-14.427c0.247-0.677,0.997-1.024,1.673-0.78c0.677,0.247,1.026,0.995,0.78,1.673l-5.251,14.427
						C203.018,51.691,202.517,52.02,201.984,52.02z"/>
				</g>
			</g>
			<circle style="fill:#FFB30F;" cx="192.415" cy="77.013" r="30.168"/>
			
				<ellipse transform="matrix(0.7934 -0.6088 0.6088 0.7934 -7.1207 133.0499)" style="fill:#FFFFFF;" cx="192.415" cy="77.013" rx="33.407" ry="33.407"/>
			<circle style="fill:#81BC00;" cx="192.415" cy="77.013" r="26.134"/>
			
				<ellipse transform="matrix(0.6097 -0.7926 0.7926 0.6097 14.0594 182.5779)" style="fill:none;stroke:#FFFFFF;stroke-width:1.1524;stroke-miterlimit:10;" cx="192.415" cy="77.013" rx="23.637" ry="23.637"/>
			<text transform="matrix(1 0 0 1 178.4138 81.1623)" style="fill:#FFFFFF; font-family:'Rubik-Regular'; font-size:13.8292px;">50%</text>
		</g>
		<g>
			<g>
				<g>
					<path style="fill:#FFB30F;" d="M80.051,151.555c-0.721,0-1.305-0.584-1.305-1.305v-15.353c0-0.721,0.584-1.305,1.305-1.305
						c0.721,0,1.305,0.584,1.305,1.305v15.353C81.355,150.971,80.771,151.555,80.051,151.555z"/>
				</g>
				<g>
					<path style="fill:#81BC00;" d="M70.479,153.244c-0.533,0-1.033-0.329-1.226-0.859l-5.251-14.427
						c-0.246-0.678,0.103-1.426,0.78-1.673c0.677-0.246,1.426,0.102,1.673,0.78l5.251,14.427c0.246,0.677-0.103,1.426-0.78,1.673
						C70.778,153.218,70.628,153.244,70.479,153.244z"/>
				</g>
				<g>
					<path style="fill:#81BC00;" d="M62.064,158.104c-0.373,0-0.743-0.158-1-0.466l-9.868-11.761
						c-0.463-0.552-0.391-1.375,0.16-1.838c0.553-0.463,1.376-0.391,1.838,0.161l9.869,11.761c0.463,0.552,0.391,1.375-0.16,1.838
						C62.657,158.003,62.36,158.104,62.064,158.104z"/>
				</g>
				<g>
					<path style="fill:#81BC00;" d="M55.815,165.55c-0.221,0-0.445-0.057-0.651-0.175l-13.296-7.677
						c-0.624-0.36-0.838-1.158-0.477-1.782c0.361-0.624,1.158-0.839,1.782-0.477l13.296,7.676c0.624,0.36,0.838,1.158,0.477,1.782
						C56.704,165.316,56.266,165.55,55.815,165.55z"/>
				</g>
				<g>
					<path style="fill:#81BC00;" d="M52.494,174.683c-0.076,0-0.152-0.007-0.228-0.02l-15.119-2.666
						c-0.71-0.125-1.184-0.802-1.058-1.511c0.125-0.71,0.809-1.184,1.511-1.058l15.119,2.666c0.71,0.125,1.184,0.802,1.058,1.511
						C53.666,174.237,53.115,174.683,52.494,174.683z"/>
				</g>
				<g>
					<path style="fill:#FFB30F;" d="M37.372,187.068c-0.621,0-1.172-0.446-1.283-1.079c-0.125-0.709,0.349-1.386,1.058-1.511
						l15.12-2.666c0.711-0.126,1.387,0.349,1.511,1.058c0.125,0.709-0.349,1.386-1.058,1.511l-15.12,2.666
						C37.524,187.061,37.448,187.068,37.372,187.068z"/>
				</g>
				<g>
					<path style="fill:#FFB30F;" d="M42.524,201.211c-0.451,0-0.889-0.234-1.131-0.653c-0.361-0.624-0.146-1.422,0.477-1.782
						l13.296-7.677c0.625-0.361,1.422-0.146,1.782,0.477c0.361,0.624,0.146,1.422-0.477,1.782l-13.296,7.676
						C42.969,201.155,42.745,201.211,42.524,201.211z"/>
				</g>
				<g>
					<path style="fill:#FFB30F;" d="M52.197,212.74c-0.296,0-0.593-0.1-0.838-0.305c-0.552-0.463-0.624-1.286-0.161-1.838
						l9.868-11.761c0.462-0.552,1.286-0.624,1.838-0.161c0.552,0.463,0.624,1.286,0.16,1.838l-9.869,11.761
						C52.939,212.582,52.57,212.74,52.197,212.74z"/>
				</g>
				<g>
					<path style="fill:#FFB30F;" d="M65.233,220.265c-0.148,0-0.299-0.025-0.446-0.079c-0.677-0.247-1.026-0.995-0.78-1.673
						l5.251-14.427c0.246-0.677,0.994-1.026,1.673-0.78c0.677,0.247,1.026,0.995,0.78,1.673l-5.251,14.427
						C66.266,219.936,65.766,220.265,65.233,220.265z"/>
				</g>
				<g>
					<path style="fill:#FFB30F;" d="M80.055,222.878c-0.721,0-1.305-0.584-1.305-1.305V206.22c0-0.721,0.584-1.305,1.305-1.305
						c0.721,0,1.305,0.584,1.305,1.305v15.353C81.36,222.294,80.776,222.878,80.055,222.878z"/>
				</g>
				<g>
					<path style="fill:#FFB30F;" d="M94.878,220.264c-0.533,0-1.033-0.329-1.226-0.859L88.4,204.978
						c-0.246-0.677,0.103-1.426,0.78-1.673c0.678-0.247,1.426,0.103,1.673,0.78l5.251,14.427c0.246,0.677-0.103,1.426-0.78,1.672
						C95.177,220.238,95.026,220.264,94.878,220.264z"/>
				</g>
				<g>
					<path style="fill:#FFB30F;" d="M107.913,212.737c-0.373,0-0.742-0.158-1-0.466l-9.869-11.761
						c-0.463-0.552-0.391-1.375,0.161-1.838c0.552-0.464,1.376-0.391,1.838,0.16l9.868,11.761c0.463,0.552,0.391,1.375-0.16,1.838
						C108.506,212.637,108.208,212.737,107.913,212.737z"/>
				</g>
				<g>
					<path style="fill:#FFB30F;" d="M117.585,201.207c-0.221,0-0.446-0.056-0.651-0.175l-13.296-7.676
						c-0.624-0.36-0.838-1.158-0.477-1.782c0.36-0.623,1.158-0.839,1.782-0.477l13.296,7.676c0.624,0.36,0.838,1.158,0.477,1.782
						C118.475,200.973,118.036,201.207,117.585,201.207z"/>
				</g>
				<g>
					<path style="fill:#FFB30F;" d="M122.735,187.064c-0.076,0-0.152-0.007-0.228-0.02l-15.119-2.666
						c-0.71-0.125-1.184-0.802-1.058-1.511c0.125-0.71,0.807-1.183,1.511-1.058l15.119,2.666c0.71,0.125,1.184,0.802,1.058,1.511
						C123.906,186.618,123.356,187.064,122.735,187.064z"/>
				</g>
				<g>
					<path style="fill:#FFB30F;" d="M107.611,174.678c-0.621,0-1.172-0.445-1.283-1.079c-0.125-0.709,0.349-1.386,1.058-1.511
						l15.119-2.666c0.711-0.125,1.387,0.349,1.511,1.059c0.125,0.709-0.349,1.386-1.058,1.511l-15.119,2.666
						C107.763,174.672,107.686,174.678,107.611,174.678z"/>
				</g>
				<g>
					<path style="fill:#FFB30F;" d="M104.289,165.546c-0.451,0-0.889-0.234-1.131-0.653c-0.361-0.624-0.147-1.422,0.477-1.782
						l13.296-7.676c0.625-0.361,1.422-0.147,1.782,0.477c0.361,0.624,0.146,1.422-0.477,1.782l-13.296,7.676
						C104.735,165.489,104.51,165.546,104.289,165.546z"/>
				</g>
				<g>
					<path style="fill:#FFB30F;" d="M98.039,158.101c-0.296,0-0.593-0.1-0.838-0.305c-0.552-0.463-0.624-1.286-0.161-1.838
						l9.869-11.761c0.463-0.552,1.285-0.624,1.838-0.161c0.552,0.463,0.624,1.286,0.161,1.838l-9.868,11.761
						C98.782,157.942,98.412,158.101,98.039,158.101z"/>
				</g>
				<g>
					<path style="fill:#FFB30F;" d="M89.622,153.242c-0.148,0-0.299-0.025-0.446-0.079c-0.677-0.247-1.026-0.995-0.78-1.673
						l5.251-14.427c0.247-0.677,0.997-1.024,1.673-0.78c0.677,0.247,1.026,0.995,0.78,1.673l-5.251,14.427
						C90.656,152.913,90.155,153.242,89.622,153.242z"/>
				</g>
			</g>
			<circle style="fill:#FFB30F;" cx="80.053" cy="178.235" r="30.168"/>
			
				<ellipse transform="matrix(0.2265 -0.974 0.974 0.2265 -111.6822 215.8357)" style="fill:#FFFFFF;" cx="80.053" cy="178.235" rx="33.407" ry="33.407"/>
			<circle style="fill:#81BC00;" cx="80.053" cy="178.235" r="26.134"/>
			
				<ellipse transform="matrix(0.7071 -0.7071 0.7071 0.7071 -102.5842 108.81)" style="fill:none;stroke:#FFFFFF;stroke-width:1.1524;stroke-miterlimit:10;" cx="80.053" cy="178.235" rx="23.637" ry="23.637"/>
			<text transform="matrix(1 0 0 1 66.8748 182.384)" style="fill:#FFFFFF; font-family:'Rubik-Regular'; font-size:13.8292px;">75%</text>
		</g>
		<g>
			<g>
				<g>
					<path style="fill:#FFB30F;" d="M192.413,151.555c-0.721,0-1.305-0.584-1.305-1.305v-15.353c0-0.721,0.584-1.305,1.305-1.305
						c0.721,0,1.305,0.584,1.305,1.305v15.353C193.717,150.971,193.133,151.555,192.413,151.555z"/>
				</g>
				<g>
					<path style="fill:#FFB30F;" d="M182.841,153.244c-0.533,0-1.033-0.329-1.226-0.859l-5.251-14.427
						c-0.246-0.678,0.103-1.426,0.78-1.673c0.678-0.246,1.426,0.102,1.673,0.78l5.251,14.427c0.246,0.677-0.103,1.426-0.78,1.673
						C183.14,153.218,182.99,153.244,182.841,153.244z"/>
				</g>
				<g>
					<path style="fill:#FFB30F;" d="M174.426,158.104c-0.372,0-0.742-0.158-1-0.466l-9.868-11.761
						c-0.463-0.552-0.391-1.375,0.16-1.838c0.553-0.463,1.376-0.391,1.838,0.161l9.868,11.761c0.463,0.552,0.391,1.375-0.161,1.838
						C175.019,158.003,174.721,158.104,174.426,158.104z"/>
				</g>
				<g>
					<path style="fill:#FFB30F;" d="M168.177,165.55c-0.221,0-0.446-0.057-0.651-0.175l-13.296-7.677
						c-0.624-0.36-0.838-1.158-0.477-1.782c0.361-0.624,1.158-0.839,1.782-0.477l13.296,7.676c0.624,0.36,0.838,1.158,0.477,1.782
						C169.066,165.316,168.628,165.55,168.177,165.55z"/>
				</g>
				<g>
					<path style="fill:#FFB30F;" d="M164.856,174.683c-0.076,0-0.152-0.007-0.228-0.02l-15.12-2.666
						c-0.71-0.125-1.184-0.802-1.058-1.511c0.125-0.71,0.809-1.184,1.511-1.058l15.119,2.666c0.71,0.125,1.184,0.802,1.058,1.511
						C166.028,174.237,165.477,174.683,164.856,174.683z"/>
				</g>
				<g>
					<path style="fill:#FFB30F;" d="M149.734,187.068c-0.621,0-1.172-0.446-1.283-1.079c-0.125-0.709,0.349-1.386,1.058-1.511
						l15.119-2.666c0.711-0.126,1.387,0.349,1.511,1.058c0.125,0.709-0.349,1.386-1.058,1.511l-15.12,2.666
						C149.886,187.061,149.809,187.068,149.734,187.068z"/>
				</g>
				<g>
					<path style="fill:#FFB30F;" d="M154.886,201.211c-0.451,0-0.889-0.234-1.131-0.653c-0.361-0.624-0.146-1.422,0.477-1.782
						l13.296-7.677c0.625-0.361,1.422-0.146,1.782,0.477c0.361,0.624,0.147,1.422-0.477,1.782l-13.296,7.676
						C155.331,201.155,155.107,201.211,154.886,201.211z"/>
				</g>
				<g>
					<path style="fill:#FFB30F;" d="M164.559,212.74c-0.296,0-0.593-0.1-0.838-0.305c-0.552-0.463-0.624-1.286-0.161-1.838
						l9.869-11.761c0.462-0.552,1.286-0.624,1.838-0.161c0.552,0.463,0.624,1.286,0.161,1.838l-9.868,11.761
						C165.301,212.582,164.931,212.74,164.559,212.74z"/>
				</g>
				<g>
					<path style="fill:#FFB30F;" d="M177.595,220.265c-0.148,0-0.299-0.025-0.446-0.079c-0.677-0.247-1.026-0.995-0.78-1.673
						l5.251-14.427c0.246-0.677,0.994-1.026,1.673-0.78c0.677,0.247,1.026,0.995,0.78,1.673l-5.251,14.427
						C178.628,219.936,178.128,220.265,177.595,220.265z"/>
				</g>
				<g>
					<path style="fill:#FFB30F;" d="M192.417,222.878c-0.721,0-1.305-0.584-1.305-1.305V206.22c0-0.721,0.584-1.305,1.305-1.305
						c0.721,0,1.305,0.584,1.305,1.305v15.353C193.722,222.294,193.138,222.878,192.417,222.878z"/>
				</g>
				<g>
					<path style="fill:#FFB30F;" d="M207.239,220.264c-0.533,0-1.033-0.329-1.226-0.859l-5.251-14.427
						c-0.246-0.677,0.103-1.426,0.78-1.673c0.678-0.247,1.426,0.103,1.673,0.78l5.251,14.427c0.246,0.677-0.103,1.426-0.78,1.672
						C207.538,220.238,207.388,220.264,207.239,220.264z"/>
				</g>
				<g>
					<path style="fill:#FFB30F;" d="M220.275,212.737c-0.372,0-0.742-0.158-1-0.466l-9.869-11.761
						c-0.463-0.552-0.391-1.375,0.161-1.838c0.553-0.464,1.376-0.391,1.838,0.16l9.869,11.761c0.463,0.552,0.391,1.375-0.161,1.838
						C220.868,212.637,220.57,212.737,220.275,212.737z"/>
				</g>
				<g>
					<path style="fill:#FFB30F;" d="M229.947,201.207c-0.221,0-0.445-0.056-0.651-0.175l-13.296-7.676
						c-0.624-0.36-0.838-1.158-0.477-1.782c0.36-0.623,1.158-0.839,1.782-0.477l13.296,7.676c0.624,0.36,0.838,1.158,0.477,1.782
						C230.836,200.973,230.398,201.207,229.947,201.207z"/>
				</g>
				<g>
					<path style="fill:#FFB30F;" d="M235.096,187.064c-0.076,0-0.152-0.007-0.228-0.02l-15.119-2.666
						c-0.71-0.125-1.184-0.802-1.058-1.511c0.125-0.71,0.807-1.183,1.511-1.058l15.119,2.666c0.71,0.125,1.184,0.802,1.058,1.511
						C236.268,186.618,235.717,187.064,235.096,187.064z"/>
				</g>
				<g>
					<path style="fill:#FFB30F;" d="M219.973,174.678c-0.621,0-1.172-0.445-1.283-1.079c-0.125-0.709,0.349-1.386,1.058-1.511
						l15.119-2.666c0.711-0.125,1.387,0.349,1.511,1.059c0.125,0.709-0.349,1.386-1.058,1.511l-15.119,2.666
						C220.124,174.672,220.048,174.678,219.973,174.678z"/>
				</g>
				<g>
					<path style="fill:#FFB30F;" d="M216.651,165.546c-0.451,0-0.889-0.234-1.131-0.653c-0.361-0.624-0.147-1.422,0.477-1.782
						l13.296-7.676c0.625-0.361,1.422-0.147,1.782,0.477c0.361,0.624,0.147,1.422-0.477,1.782l-13.296,7.676
						C217.097,165.489,216.872,165.546,216.651,165.546z"/>
				</g>
				<g>
					<path style="fill:#FFB30F;" d="M210.401,158.101c-0.296,0-0.593-0.1-0.838-0.305c-0.552-0.463-0.624-1.286-0.161-1.838
						l9.869-11.761c0.462-0.552,1.285-0.624,1.838-0.161c0.552,0.463,0.624,1.286,0.161,1.838l-9.869,11.761
						C211.144,157.942,210.774,158.101,210.401,158.101z"/>
				</g>
				<g>
					<path style="fill:#FFB30F;" d="M201.984,153.242c-0.148,0-0.299-0.025-0.446-0.079c-0.677-0.247-1.026-0.995-0.78-1.673
						l5.251-14.427c0.247-0.677,0.997-1.024,1.673-0.78c0.677,0.247,1.026,0.995,0.78,1.673l-5.251,14.427
						C203.018,152.913,202.517,153.242,201.984,153.242z"/>
				</g>
			</g>
			<circle style="fill:#FFB30F;" cx="192.415" cy="178.235" r="30.168"/>
			
				<ellipse transform="matrix(0.2062 -0.9785 0.9785 0.2062 -21.6584 329.7734)" style="fill:#FFFFFF;" cx="192.415" cy="178.235" rx="33.407" ry="33.407"/>
			<circle style="fill:#81BC00;" cx="192.415" cy="178.235" r="26.134"/>
			
				<ellipse transform="matrix(0.2585 -0.966 0.966 0.2585 -29.5043 318.0317)" style="fill:none;stroke:#FFFFFF;stroke-width:1.1524;stroke-miterlimit:10;" cx="192.415" cy="178.235" rx="23.637" ry="23.637"/>
			<text transform="matrix(1 0 0 1 175.2268 182.384)" style="fill:#FFFFFF; font-family:'Rubik-Regular'; font-size:13.8292px;">100%</text>
		</g>
	</g>
	<g>
		<g>
			
				<polyline style="fill:none;stroke:#B2B2B2;stroke-width:0.2042;stroke-linecap:round;stroke-linejoin:round;stroke-miterlimit:10;" points="
				274.628,91.233 274.628,208.05 454.093,208.05 			"/>
			
				<line style="fill:none;stroke:#B2B2B2;stroke-width:0.2042;stroke-linecap:round;stroke-linejoin:round;stroke-miterlimit:10;" x1="274.628" y1="195.719" x2="454.093" y2="195.719"/>
			
				<line style="fill:none;stroke:#B2B2B2;stroke-width:0.2042;stroke-linecap:round;stroke-linejoin:round;stroke-miterlimit:10;" x1="274.628" y1="182.74" x2="454.093" y2="182.74"/>
			
				<line style="fill:none;stroke:#B2B2B2;stroke-width:0.2042;stroke-linecap:round;stroke-linejoin:round;stroke-miterlimit:10;" x1="274.628" y1="169.76" x2="454.093" y2="169.76"/>
			
				<line style="fill:none;stroke:#B2B2B2;stroke-width:0.2042;stroke-linecap:round;stroke-linejoin:round;stroke-miterlimit:10;" x1="274.628" y1="156.78" x2="454.093" y2="156.78"/>
			
				<line style="fill:none;stroke:#B2B2B2;stroke-width:0.2042;stroke-linecap:round;stroke-linejoin:round;stroke-miterlimit:10;" x1="274.628" y1="143.801" x2="454.093" y2="143.801"/>
			
				<line style="fill:none;stroke:#B2B2B2;stroke-width:0.2042;stroke-linecap:round;stroke-linejoin:round;stroke-miterlimit:10;" x1="274.628" y1="130.821" x2="454.093" y2="130.821"/>
			
				<line style="fill:none;stroke:#B2B2B2;stroke-width:0.2042;stroke-linecap:round;stroke-linejoin:round;stroke-miterlimit:10;" x1="274.628" y1="117.841" x2="454.093" y2="117.841"/>
			
				<line style="fill:none;stroke:#B2B2B2;stroke-width:0.2042;stroke-linecap:round;stroke-linejoin:round;stroke-miterlimit:10;" x1="274.628" y1="104.862" x2="454.093" y2="104.862"/>
			
				<line style="fill:none;stroke:#B2B2B2;stroke-width:0.2042;stroke-linecap:round;stroke-linejoin:round;stroke-miterlimit:10;" x1="274.628" y1="91.502" x2="454.093" y2="91.502"/>
			
				<line style="fill:none;stroke:#B2B2B2;stroke-width:0.2042;stroke-linecap:round;stroke-linejoin:round;stroke-miterlimit:10;" x1="274.628" y1="78.142" x2="454.093" y2="78.142"/>
			
				<line style="fill:none;stroke:#B2B2B2;stroke-width:0.2042;stroke-linecap:round;stroke-linejoin:round;stroke-miterlimit:10;" x1="274.628" y1="64.782" x2="454.093" y2="64.782"/>
			
				<line style="fill:none;stroke:#B2B2B2;stroke-width:0.2364;stroke-linecap:round;stroke-linejoin:round;stroke-miterlimit:10;" x1="317.384" y1="208.05" x2="317.384" y2="51.473"/>
			
				<line style="fill:none;stroke:#B2B2B2;stroke-width:0.2364;stroke-linecap:round;stroke-linejoin:round;stroke-miterlimit:10;" x1="359.016" y1="208.05" x2="359.016" y2="51.473"/>
			
				<line style="fill:none;stroke:#B2B2B2;stroke-width:0.2364;stroke-linecap:round;stroke-linejoin:round;stroke-miterlimit:10;" x1="400.647" y1="208.05" x2="400.647" y2="51.473"/>
			
				<line style="fill:none;stroke:#B2B2B2;stroke-width:0.2364;stroke-linecap:round;stroke-linejoin:round;stroke-miterlimit:10;" x1="442.278" y1="208.05" x2="442.278" y2="51.473"/>
		</g>
		
			<line style="fill:none;stroke:#01295F;stroke-width:0.9282;stroke-miterlimit:10;" x1="274.628" y1="38.482" x2="274.628" y2="208.05"/>
		
			<polyline style="fill:none;stroke:#01295F;stroke-width:0.9282;stroke-linecap:round;stroke-linejoin:round;stroke-miterlimit:10;" points="
			271.901,43.18 274.686,37.572 277.18,43.026 		"/>
		<path style="fill:#FF8110;" d="M313.101,207.757H293.91v-97.573c0-4.487,3.638-8.125,8.125-8.125h2.941
			c4.487,0,8.125,3.638,8.125,8.125V207.757z"/>
		<path style="fill:#FFB30F;" d="M344.102,207.757h-19.191v-59.486c0-4.487,3.638-8.125,8.125-8.125h2.941
			c4.487,0,8.125,3.638,8.125,8.125V207.757z"/>
		<path style="fill:#81BC00;" d="M375.103,207.757h-19.191v-83.401c0-4.487,3.638-8.125,8.125-8.125h2.941
			c4.487,0,8.125,3.638,8.125,8.125V207.757z"/>
		<path style="fill:#24D0E2;" d="M406.104,207.757h-19.191V88.04c0-4.487,3.638-8.125,8.125-8.125h2.941
			c4.487,0,8.125,3.638,8.125,8.125V207.757z"/>
		<path style="fill:#FF8110;" d="M437.105,207.757h-19.191v-99.64c0-4.487,3.638-8.125,8.125-8.125h2.941
			c4.487,0,8.125,3.638,8.125,8.125V207.757z"/>
		<g>
			
				<line style="fill:none;stroke:#01295F;stroke-width:0.9282;stroke-miterlimit:10;" x1="463.528" y1="207.644" x2="274.167" y2="207.644"/>
			
				<polyline style="fill:none;stroke:#01295F;stroke-width:0.9282;stroke-linecap:round;stroke-linejoin:round;stroke-miterlimit:10;" points="
				458.326,204.917 463.934,207.702 458.481,210.196 			"/>
		</g>
		
			<polyline style="fill:none;stroke:#4F4F4F;stroke-width:0.9282;stroke-linecap:round;stroke-linejoin:round;stroke-miterlimit:10;" points="
			303.506,102.206 334.507,140.146 365.508,116.231 396.508,79.768 427.509,99.992 		"/>
		<path style="fill:#01295F;" d="M336.573,140.146c0,1.182-0.958,2.141-2.141,2.141s-2.141-0.958-2.141-2.141
			s0.958-2.141,2.141-2.141S336.573,138.963,336.573,140.146z"/>
		<path style="fill:#01295F;" d="M367.427,116.378c0,1.182-0.958,2.14-2.141,2.14s-2.141-0.958-2.141-2.14
			c0-1.182,0.958-2.141,2.141-2.141S367.427,115.196,367.427,116.378z"/>
		<path style="fill:#01295F;" d="M429.65,99.992c0,1.182-0.958,2.14-2.14,2.14c-1.182,0-2.141-0.958-2.141-2.14
			c0-1.182,0.958-2.141,2.141-2.141C428.692,97.852,429.65,98.81,429.65,99.992z"/>
		<circle style="fill:#FFFFFF;" cx="334.433" cy="140.146" r="1.365"/>
		<path style="fill:#FFFFFF;" d="M366.652,116.378c0,0.754-0.611,1.365-1.365,1.365c-0.754,0-1.366-0.611-1.366-1.365
			c0-0.754,0.611-1.366,1.366-1.366C366.04,115.013,366.652,115.624,366.652,116.378z"/>
		<circle style="fill:#FFFFFF;" cx="427.509" cy="99.992" r="1.365"/>
		<path style="fill:#01295F;" d="M305.78,101.911c0,1.182-0.958,2.14-2.14,2.14c-1.182,0-2.141-0.958-2.141-2.14
			c0-1.182,0.958-2.141,2.141-2.141C304.822,99.771,305.78,100.729,305.78,101.911z"/>
		<path style="fill:#FFFFFF;" d="M305.005,101.911c0,0.754-0.611,1.366-1.365,1.366c-0.754,0-1.366-0.611-1.366-1.366
			c0-0.754,0.611-1.366,1.366-1.366C304.394,100.546,305.005,101.157,305.005,101.911z"/>
		<g>
			<text transform="matrix(1 0 0 1 299.5074 86.6603)" style="fill:#4C4C4C; font-family:'Rubik-Regular'; font-size:4.6671px;">161</text>
			<g>
				<g>
					
						<line style="fill:none;stroke:#4C4C4C;stroke-width:0.5905;stroke-linecap:round;stroke-linejoin:round;" x1="303.345" y1="89.142" x2="303.345" y2="89.201"/>
					
						<line style="fill:none;stroke:#4C4C4C;stroke-width:0.5905;stroke-linecap:round;stroke-linejoin:round;stroke-dasharray:0.1026,2.0525;" x1="303.345" y1="91.253" x2="303.345" y2="96.692"/>
					
						<line style="fill:none;stroke:#4C4C4C;stroke-width:0.5905;stroke-linecap:round;stroke-linejoin:round;" x1="303.345" y1="97.719" x2="303.345" y2="97.778"/>
				</g>
			</g>
		</g>
		<g>
			<text transform="matrix(1 0 0 1 330.3004 124.8947)" style="fill:#4C4C4C; font-family:'Rubik-Regular'; font-size:4.6671px;">105</text>
			<g>
				<g>
					
						<line style="fill:none;stroke:#4C4C4C;stroke-width:0.5905;stroke-linecap:round;stroke-linejoin:round;" x1="334.138" y1="127.376" x2="334.138" y2="127.435"/>
					
						<line style="fill:none;stroke:#4C4C4C;stroke-width:0.5905;stroke-linecap:round;stroke-linejoin:round;stroke-dasharray:0.1026,2.0525;" x1="334.138" y1="129.488" x2="334.138" y2="134.927"/>
					
						<line style="fill:none;stroke:#4C4C4C;stroke-width:0.5905;stroke-linecap:round;stroke-linejoin:round;" x1="334.138" y1="135.953" x2="334.138" y2="136.012"/>
				</g>
			</g>
		</g>
		<g>
			<text transform="matrix(1 0 0 1 361.1534 100.9796)" style="fill:#4C4C4C; font-family:'Rubik-Regular'; font-size:4.6671px;">142</text>
			<g>
				<g>
					
						<line style="fill:none;stroke:#4C4C4C;stroke-width:0.5905;stroke-linecap:round;stroke-linejoin:round;" x1="364.991" y1="103.461" x2="364.991" y2="103.52"/>
					
						<line style="fill:none;stroke:#4C4C4C;stroke-width:0.5905;stroke-linecap:round;stroke-linejoin:round;stroke-dasharray:0.1026,2.0525;" x1="364.991" y1="105.573" x2="364.991" y2="111.012"/>
					
						<line style="fill:none;stroke:#4C4C4C;stroke-width:0.5905;stroke-linecap:round;stroke-linejoin:round;" x1="364.991" y1="112.038" x2="364.991" y2="112.097"/>
				</g>
			</g>
		</g>
		<g>
			<path style="fill:#01295F;" d="M398.649,79.399c0,1.182-0.958,2.141-2.141,2.141s-2.14-0.958-2.14-2.141
				c0-1.182,0.958-2.14,2.14-2.14S398.649,78.216,398.649,79.399z"/>
			<path style="fill:#FFFFFF;" d="M397.874,79.399c0,0.754-0.611,1.366-1.366,1.366c-0.754,0-1.365-0.611-1.365-1.366
				c0-0.754,0.611-1.366,1.365-1.366C397.263,78.033,397.874,78.645,397.874,79.399z"/>
			<g>
				<text transform="matrix(1 0 0 1 392.3755 64.0739)" style="fill:#4C4C4C; font-family:'Rubik-Regular'; font-size:4.6671px;">195</text>
				<g>
					<g>
						
							<line style="fill:none;stroke:#4C4C4C;stroke-width:0.5905;stroke-linecap:round;stroke-linejoin:round;" x1="396.213" y1="66.555" x2="396.213" y2="66.615"/>
						
							<line style="fill:none;stroke:#4C4C4C;stroke-width:0.5905;stroke-linecap:round;stroke-linejoin:round;stroke-dasharray:0.1026,2.0525;" x1="396.213" y1="68.667" x2="396.213" y2="74.106"/>
						
							<line style="fill:none;stroke:#4C4C4C;stroke-width:0.5905;stroke-linecap:round;stroke-linejoin:round;" x1="396.213" y1="75.132" x2="396.213" y2="75.191"/>
					</g>
				</g>
			</g>
		</g>
		<g>
			<text transform="matrix(1 0 0 1 423.3765 84.9869)" style="fill:#4C4C4C; font-family:'Rubik-Regular'; font-size:4.6671px;">165</text>
			<g>
				<g>
					
						<line style="fill:none;stroke:#4C4C4C;stroke-width:0.5905;stroke-linecap:round;stroke-linejoin:round;" x1="427.214" y1="87.469" x2="427.214" y2="87.528"/>
					
						<line style="fill:none;stroke:#4C4C4C;stroke-width:0.5905;stroke-linecap:round;stroke-linejoin:round;stroke-dasharray:0.1026,2.0525;" x1="427.214" y1="89.58" x2="427.214" y2="95.019"/>
					
						<line style="fill:none;stroke:#4C4C4C;stroke-width:0.5905;stroke-linecap:round;stroke-linejoin:round;" x1="427.214" y1="96.046" x2="427.214" y2="96.105"/>
				</g>
			</g>
		</g>
		<g>
			<text transform="matrix(1 0 0 1 263.1915 208.0455)" style="fill:#4C4C4C; font-family:'Rubik-Regular'; font-size:4.6671px;">0</text>
		</g>
		<g>
			<text transform="matrix(1 0 0 1 261.8336 195.7438)" style="fill:#4C4C4C; font-family:'Rubik-Regular'; font-size:4.6671px;">20</text>
		</g>
		<g>
			<g>
				<text transform="matrix(1 0 0 1 314.7808 216.5094)" style="fill:#4C4C4C; font-family:'Rubik-Regular'; font-size:4.6671px;">20</text>
			</g>
			<g>
				<text transform="matrix(1 0 0 1 356.7056 216.5094)" style="fill:#4C4C4C; font-family:'Rubik-Regular'; font-size:4.6671px;">40</text>
			</g>
			<g>
				<text transform="matrix(1 0 0 1 398.0406 216.5094)" style="fill:#4C4C4C; font-family:'Rubik-Regular'; font-size:4.6671px;">60</text>
			</g>
			<g>
				<text transform="matrix(1 0 0 1 439.5225 216.5094)" style="fill:#4C4C4C; font-family:'Rubik-Regular'; font-size:4.6671px;">80</text>
			</g>
		</g>
		<g>
			<text transform="matrix(1 0 0 1 261.7681 182.7775)" style="fill:#4C4C4C; font-family:'Rubik-Regular'; font-size:4.6671px;">40</text>
		</g>
		<g>
			<text transform="matrix(1 0 0 1 261.796 169.7867)" style="fill:#4C4C4C; font-family:'Rubik-Regular'; font-size:4.6671px;">60</text>
		</g>
		<g>
			<text transform="matrix(1 0 0 1 261.7681 156.8448)" style="fill:#4C4C4C; font-family:'Rubik-Regular'; font-size:4.6671px;">80</text>
		</g>
		<g>
			<text transform="matrix(1 0 0 1 260.7296 143.8541)" style="fill:#4C4C4C; font-family:'Rubik-Regular'; font-size:4.6671px;">100</text>
		</g>
		<g>
			<text transform="matrix(1 0 0 1 260.8506 130.8385)" style="fill:#4C4C4C; font-family:'Rubik-Regular'; font-size:4.6671px;">120</text>
		</g>
		<g>
			<text transform="matrix(1 0 0 1 260.7857 117.8722)" style="fill:#4C4C4C; font-family:'Rubik-Regular'; font-size:4.6671px;">140</text>
		</g>
		<g>
			<text transform="matrix(1 0 0 1 260.8135 104.8815)" style="fill:#4C4C4C; font-family:'Rubik-Regular'; font-size:4.6671px;">160</text>
		</g>
		<g>
			<text transform="matrix(1 0 0 1 260.7857 91.546)" style="fill:#4C4C4C; font-family:'Rubik-Regular'; font-size:4.6671px;">180</text>
		</g>
		<g>
			<text transform="matrix(1 0 0 1 260.3541 78.1617)" style="fill:#4C4C4C; font-family:'Rubik-Regular'; font-size:4.6671px;">200</text>
		</g>
		<g>
			<text transform="matrix(1 0 0 1 260.4752 64.8756)" style="fill:#4C4C4C; font-family:'Rubik-Regular'; font-size:4.6671px;">220</text>
		</g>
	</g>
	<g>
		<circle style="fill:#24D0E2;" cx="83.818" cy="304.567" r="47.75"/>
		
			<ellipse transform="matrix(0.9725 -0.2327 0.2327 0.9725 -68.5729 27.8659)" style="fill:#24D0E2;" cx="83.818" cy="304.567" rx="47.75" ry="47.75"/>
		<g>
			<circle style="fill:#24D0E2;" cx="82.068" cy="304.567" r="36.25"/>
		</g>
		<g>
			<circle style="fill:#81BC00;" cx="83.818" cy="304.567" r="36.25"/>
		</g>
		<g>
			<circle style="fill:#81BC00;" cx="82.193" cy="304.567" r="22.25"/>
		</g>
		<g>
			<circle style="fill:#FF7300;" cx="83.818" cy="304.567" r="22.25"/>
		</g>
		<g>
			
				<ellipse transform="matrix(0.9228 -0.3853 0.3853 0.9228 -110.9798 55.2771)" style="fill:#FF7300;" cx="82.443" cy="304.567" rx="11.084" ry="11.084"/>
		</g>
		<g>
			
				<ellipse transform="matrix(0.9228 -0.3853 0.3853 0.9228 -110.8736 55.8068)" style="fill:#FFB30F;" cx="83.818" cy="304.567" rx="11.084" ry="11.084"/>
		</g>
		<g>
			<g>
				<rect x="107.569" y="297.369" style="fill:#81BC00;" width="32.708" height="1"/>
			</g>
			<g>
				<rect x="85.913" y="323.703" style="fill:#FF7300;" width="54.364" height="1"/>
			</g>
			<g>
				<g>
					<rect x="119.069" y="283.619" style="fill:#24D0E2;" width="38.124" height="1"/>
				</g>
				<g>
					<rect x="87.819" y="310.119" style="fill:#FFB30F;" width="69.374" height="1"/>
				</g>
				<g>
					<g>
						<circle style="fill:#24D0E2;" cx="157.204" cy="284.119" r="2.875"/>
					</g>
					<g>
						<circle style="fill:#FFFFFF;" cx="157.204" cy="284.119" r="1.813"/>
					</g>
				</g>
				<g>
					<g>
						<circle style="fill:#81BC00;" cx="142.329" cy="297.869" r="2.875"/>
					</g>
					<g>
						<circle style="fill:#FFFFFF;" cx="142.329" cy="297.869" r="1.813"/>
					</g>
				</g>
				<g>
					<g>
						<circle style="fill:#FF7300;" cx="142.329" cy="324.203" r="2.875"/>
					</g>
					<g>
						<circle style="fill:#FFFFFF;" cx="142.329" cy="324.203" r="1.813"/>
					</g>
				</g>
				<g>
					<g>
						<circle style="fill:#FFB30F;" cx="157.204" cy="310.619" r="2.875"/>
					</g>
					<g>
						<circle style="fill:#FFFFFF;" cx="157.204" cy="310.619" r="1.813"/>
					</g>
				</g>
				<text transform="matrix(1 0 0 1 162.7831 288.4166)" style="fill:#24D0E2; font-family:'Rubik-Regular'; font-size:14.3252px;">A</text>
				<text transform="matrix(1 0 0 1 147.7831 302.6666)" style="fill:#81BC00; font-family:'Rubik-Regular'; font-size:14.3252px;">B</text>
				<text transform="matrix(1 0 0 1 147.7831 329.3125)" style="fill:#FF7300; font-family:'Rubik-Regular'; font-size:14.3252px;">D</text>
				<text transform="matrix(1 0 0 1 162.7831 314.9168)" style="fill:#FFB30F; font-family:'Rubik-Regular'; font-size:14.3252px;">C</text>
			</g>
		</g>
	</g>
	<g>
		<polygon style="fill:#24D0E2;" points="270.672,249.727 246.03,249.727 233.709,271.067 246.03,292.408 270.672,292.408 
			282.993,271.067 		"/>
		<g>
			<polygon style="fill:#24D0E2;" points="265.559,257.473 249.392,257.473 241.309,271.474 249.392,285.474 265.559,285.474 
				273.642,271.474 			"/>
			<polygon style="fill:#FFFFFF;" points="266.434,257.066 250.267,257.066 242.184,271.067 250.267,285.068 266.434,285.068 
				274.517,271.067 			"/>
		</g>
		<text transform="matrix(1 0 0 1 251.2688 277.4764)" style="fill:#24D0E2; font-family:'Rubik-Regular'; font-size:21.3639px;">A</text>
		<g>
			<polygon style="fill:#FF8110;" points="325.839,312.727 301.197,312.727 288.876,334.067 301.197,355.408 325.839,355.408 
				338.159,334.067 			"/>
			<g>
				<polygon style="fill:#FF8110;" points="320.726,320.473 304.559,320.473 296.476,334.474 304.559,348.474 320.726,348.474 
					328.809,334.474 				"/>
				<polygon style="fill:#FFFFFF;" points="321.601,320.066 305.434,320.066 297.351,334.067 305.434,348.068 321.601,348.068 
					329.684,334.067 				"/>
			</g>
			<text transform="matrix(1 0 0 1 306.4355 340.4764)" style="fill:#FF8110; font-family:'Rubik-Regular'; font-size:21.3639px;">B</text>
		</g>
		<g>
			<polygon style="fill:#81BC00;" points="442.838,312.727 418.197,312.727 405.876,334.067 418.197,355.408 442.838,355.408 
				455.159,334.067 			"/>
			<g>
				<polygon style="fill:#81BC00;" points="437.726,320.473 421.559,320.473 413.476,334.474 421.559,348.474 437.726,348.474 
					445.809,334.474 				"/>
				<polygon style="fill:#FFFFFF;" points="438.601,320.066 422.434,320.066 414.351,334.067 422.434,348.068 438.601,348.068 
					446.684,334.067 				"/>
			</g>
			<text transform="matrix(1 0 0 1 423.4355 340.4764)" style="fill:#81BC00; font-family:'Rubik-Regular'; font-size:21.3639px;">D</text>
		</g>
		<g>
			<polygon style="fill:#FFB30F;" points="387.672,249.727 363.03,249.727 350.709,271.067 363.03,292.408 387.672,292.408 
				399.993,271.067 			"/>
			<g>
				<polygon style="fill:#FFB30F;" points="382.559,257.473 366.393,257.473 358.309,271.474 366.393,285.474 382.559,285.474 
					390.643,271.474 				"/>
				<polygon style="fill:#FFFFFF;" points="383.434,257.066 367.268,257.066 359.184,271.067 367.268,285.068 383.434,285.068 
					391.518,271.067 				"/>
			</g>
			<text transform="matrix(1 0 0 1 368.269 277.4764)" style="fill:#FFB30F; font-family:'Rubik-Regular'; font-size:21.3639px;">C</text>
		</g>
		
			<line style="fill:none;stroke:#4F4F4F;stroke-width:0.9282;stroke-linecap:round;stroke-linejoin:round;stroke-miterlimit:10;" x1="224.767" y1="302.442" x2="460.267" y2="302.442"/>
		<g>
			<path style="fill:#24D0E2;" d="M258.351,302.532c-0.256,0-0.464-0.208-0.464-0.464v-8.5c0-0.256,0.208-0.464,0.464-0.464
				c0.256,0,0.464,0.208,0.464,0.464v8.5C258.815,302.324,258.607,302.532,258.351,302.532z"/>
		</g>
		<g>
			<path style="fill:#FFB30F;" d="M375.351,303.032c-0.256,0-0.464-0.208-0.464-0.464v-8.5c0-0.256,0.208-0.464,0.464-0.464
				c0.256,0,0.464,0.208,0.464,0.464v8.5C375.815,302.824,375.607,303.032,375.351,303.032z"/>
		</g>
		<g>
			<path style="fill:#FF8110;" d="M313.517,311.365c-0.256,0-0.464-0.208-0.464-0.464v-8.5c0-0.256,0.208-0.464,0.464-0.464
				c0.256,0,0.464,0.208,0.464,0.464v8.5C313.982,311.157,313.774,311.365,313.517,311.365z"/>
		</g>
		<g>
			<path style="fill:#81BC00;" d="M430.517,311.865c-0.256,0-0.464-0.208-0.464-0.464v-8.5c0-0.256,0.208-0.464,0.464-0.464
				c0.256,0,0.464,0.208,0.464,0.464v8.5C430.982,311.657,430.774,311.865,430.517,311.865z"/>
		</g>
		<circle style="fill:#01295F;" cx="223.705" cy="302.442" r="3.063"/>
		<path style="fill:#FFFFFF;" d="M225.559,302.442c0,1.024-0.83,1.854-1.854,1.854s-1.854-0.83-1.854-1.854
			c0-1.024,0.83-1.854,1.854-1.854S225.559,301.418,225.559,302.442z"/>
		<path style="fill:#01295F;" d="M260.08,302.442c0,0.955-0.774,1.729-1.729,1.729c-0.955,0-1.729-0.774-1.729-1.729
			c0-0.955,0.774-1.729,1.729-1.729C259.306,300.713,260.08,301.487,260.08,302.442z"/>
		<path style="fill:#01295F;" d="M315.33,302.442c0,0.955-0.774,1.729-1.729,1.729c-0.955,0-1.729-0.774-1.729-1.729
			c0-0.955,0.774-1.729,1.729-1.729C314.556,300.713,315.33,301.487,315.33,302.442z"/>
		<path style="fill:#01295F;" d="M377.122,302.442c0,0.955-0.774,1.729-1.729,1.729s-1.729-0.774-1.729-1.729
			c0-0.955,0.774-1.729,1.729-1.729S377.122,301.487,377.122,302.442z"/>
		<path style="fill:#01295F;" d="M432.247,302.442c0,0.955-0.774,1.729-1.729,1.729s-1.729-0.774-1.729-1.729
			c0-0.955,0.774-1.729,1.729-1.729S432.247,301.487,432.247,302.442z"/>
		<circle style="fill:#01295F;" cx="460.872" cy="302.442" r="3.063"/>
		<path style="fill:#FFFFFF;" d="M462.726,302.442c0,1.024-0.83,1.854-1.854,1.854c-1.024,0-1.854-0.83-1.854-1.854
			c0-1.024,0.83-1.854,1.854-1.854C461.896,300.588,462.726,301.418,462.726,302.442z"/>
	</g>
	<g>
		<path style="fill:none;stroke:#FF8110;stroke-miterlimit:10;" d="M254.756,422.005l27.479-27.146l21.333,25.666l13.667-14.666
			l20.667,32l17-13.667c0,0,41.667,25,42.667,24.667c1-0.333,21-55.333,21-55.333l26.333,57.635"/>
		<polyline style="fill:none;stroke:#707070;stroke-linecap:round;stroke-linejoin:round;stroke-miterlimit:10;" points="
			251.788,374.317 254.538,370.442 257.319,374.13 		"/>
		<polyline style="fill:none;stroke:#707070;stroke-linecap:round;stroke-linejoin:round;stroke-miterlimit:10;" points="
			458.491,448.531 462.366,451.281 458.678,454.062 		"/>
		<g>
			<text transform="matrix(1 0 0 1 246.567 453.3793)" style="fill:#707070; font-family:'Rubik-Regular'; font-size:8px;">0</text>
		</g>
		<g>
			<text transform="matrix(1 0 0 1 245.9651 370.7772)" style="fill:#707070; font-family:'Rubik-Regular'; font-size:8px;">%</text>
		</g>
		<path style="fill:none;stroke:#24D0E2;stroke-miterlimit:10;" d="M254.568,451.192c0.001-1.333,17.334-65.333,17.334-65.333
			l31.667,51.333l30.333-32.667l29,35l25-32.333l46.417,44.031"/>
		<g>
			<circle style="fill:#24D0E2;" cx="271.85" cy="385.911" r="1.375"/>
			<path style="fill:#FFFFFF;" d="M272.704,385.911c0,0.472-0.382,0.854-0.854,0.854c-0.472,0-0.854-0.383-0.854-0.854
				c0-0.472,0.382-0.854,0.854-0.854C272.322,385.057,272.704,385.439,272.704,385.911z"/>
		</g>
		<circle style="fill:#24D0E2;" cx="303.611" cy="437.192" r="1.375"/>
		<circle style="fill:#24D0E2;" cx="333.722" cy="404.296" r="1.375"/>
		<circle style="fill:#24D0E2;" cx="362.819" cy="439.192" r="1.375"/>
		<circle style="fill:#24D0E2;" cx="388.069" cy="407.442" r="1.375"/>
		<polyline style="fill:none;stroke:#707070;stroke-miterlimit:10;" points="254.568,371.317 254.568,451.192 462.069,451.192 		"/>
		<path style="fill:#FFFFFF;" d="M304.465,437.192c0,0.472-0.383,0.854-0.854,0.854c-0.472,0-0.854-0.382-0.854-0.854
			c0-0.472,0.382-0.854,0.854-0.854C304.082,436.338,304.465,436.72,304.465,437.192z"/>
		<path style="fill:#FFFFFF;" d="M334.576,404.296c0,0.472-0.382,0.854-0.854,0.854c-0.472,0-0.854-0.382-0.854-0.854
			c0-0.472,0.382-0.854,0.854-0.854C334.194,403.442,334.576,403.824,334.576,404.296z"/>
		<path style="fill:#FFFFFF;" d="M363.673,439.192c0,0.472-0.382,0.854-0.854,0.854c-0.472,0-0.854-0.382-0.854-0.854
			c0-0.472,0.382-0.854,0.854-0.854C363.291,438.338,363.673,438.72,363.673,439.192z"/>
		<path style="fill:#FFFFFF;" d="M388.923,407.442c0,0.472-0.382,0.854-0.854,0.854c-0.472,0-0.854-0.382-0.854-0.854
			c0-0.472,0.382-0.854,0.854-0.854C388.541,406.588,388.923,406.97,388.923,407.442z"/>
		<text transform="matrix(1 0 0 1 269.209 382.8765)" style="fill:#707070; font-family:'Rubik-Regular'; font-size:4.5973px;">70</text>
		<text transform="matrix(1 0 0 1 300.9695 444.1265)" style="fill:#707070; font-family:'Rubik-Regular'; font-size:4.5973px;">22</text>
		<text transform="matrix(1 0 0 1 360.1776 445.4598)" style="fill:#707070; font-family:'Rubik-Regular'; font-size:4.5973px;">20</text>
		<text transform="matrix(1 0 0 1 331.0809 401.2513)" style="fill:#707070; font-family:'Rubik-Regular'; font-size:4.5973px;">50</text>
		<text transform="matrix(1 0 0 1 385.4276 404.668)" style="fill:#707070; font-family:'Rubik-Regular'; font-size:4.5973px;">40</text>
	</g>
	<g>
		<path style="opacity:0.4;fill:#24D0E2;" d="M208.566,397.629H41.232c-2.853,0-5.167-2.313-5.167-5.167l0,0
			c0-2.853,2.313-5.167,5.167-5.167h167.333c2.854,0,5.167,2.313,5.167,5.167l0,0C213.732,395.316,211.419,397.629,208.566,397.629z
			"/>
		<path style="fill:#24D0E2;" d="M85.569,397.629H41.232c-2.853,0-5.167-2.313-5.167-5.167l0,0c0-2.853,2.313-5.167,5.167-5.167
			h44.336c2.854,0,5.167,2.313,5.167,5.167l0,0C90.736,395.316,88.422,397.629,85.569,397.629z"/>
		<path style="opacity:0.4;fill:#81BC00;" d="M208.566,415.629H41.232c-2.853,0-5.167-2.313-5.167-5.167l0,0
			c0-2.853,2.313-5.167,5.167-5.167h167.333c2.854,0,5.167,2.313,5.167,5.167l0,0C213.732,413.316,211.419,415.629,208.566,415.629z
			"/>
		<path style="fill:#81BC00;" d="M114.152,415.629h-72.92c-2.853,0-5.167-2.313-5.167-5.167l0,0c0-2.853,2.313-5.167,5.167-5.167
			h72.92c2.853,0,5.167,2.313,5.167,5.167l0,0C119.319,413.316,117.006,415.629,114.152,415.629z"/>
		<path style="opacity:0.4;fill:#FFB30F;" d="M208.566,433.629H41.232c-2.853,0-5.167-2.313-5.167-5.167l0,0
			c0-2.853,2.313-5.167,5.167-5.167h167.333c2.854,0,5.167,2.313,5.167,5.167l0,0C213.732,431.316,211.419,433.629,208.566,433.629z
			"/>
		<path style="opacity:0.4;fill:#FF8110;" d="M208.566,452.629H41.232c-2.853,0-5.167-2.313-5.167-5.167l0,0
			c0-2.853,2.313-5.167,5.167-5.167h167.333c2.854,0,5.167,2.313,5.167,5.167l0,0C213.732,450.316,211.419,452.629,208.566,452.629z
			"/>
		<path style="fill:#FF8110;" d="M136.152,452.629h-94.92c-2.853,0-5.167-2.313-5.167-5.167l0,0c0-2.853,2.313-5.167,5.167-5.167
			h94.92c2.853,0,5.167,2.313,5.167,5.167l0,0C141.319,450.316,139.006,452.629,136.152,452.629z"/>
		<path style="fill:#FFB30F;" d="M60.152,433.629h-18.92c-2.853,0-5.167-2.313-5.167-5.167l0,0c0-2.853,2.313-5.167,5.167-5.167
			h18.92c2.853,0,5.167,2.313,5.167,5.167l0,0C65.319,431.316,63.006,433.629,60.152,433.629z"/>
		<circle style="fill:#24D0E2;" cx="104.277" cy="392.504" r="5.125"/>
		<g>
			<circle style="fill:#81BC00;" cx="133.691" cy="410.462" r="5.125"/>
		</g>
		<g>
			<circle style="fill:#FFB30F;" cx="78.691" cy="428.462" r="5.125"/>
		</g>
		<g>
			<circle style="fill:#FF8110;" cx="154.191" cy="447.462" r="5.125"/>
		</g>
		<text transform="matrix(1 0 0 1 44.6135 430.4752)" style="fill:#FFFFFF; font-family:'Rubik-Regular'; font-size:6.7096px;">15%</text>
		<text transform="matrix(1 0 0 1 56.7381 394.4751)" style="fill:#FFFFFF; font-family:'Rubik-Regular'; font-size:6.7096px;">35%</text>
		<text transform="matrix(1 0 0 1 81.8854 449.4753)" style="fill:#FFFFFF; font-family:'Rubik-Regular'; font-size:6.7096px;">60%</text>
		<text transform="matrix(1 0 0 1 70.9794 412.4753)" style="fill:#FFFFFF; font-family:'Rubik-Regular'; font-size:6.7096px;">45%</text>
	</g>
</g>
<g id="DESIGNED_BY_FREEPIK">
	<g>
		<g id="XMLID_319_">
			<g id="XMLID_338_">
				<path id="XMLID_346_" style="fill:#1D262D;" d="M260.104,479.809c-0.432,0.443-0.803,0.931-1.108,1.453l-0.465-0.241
					c-0.067-0.298-0.349-0.503-0.659-0.466c-0.331,0.039-0.568,0.339-0.529,0.67c0.039,0.331,0.339,0.568,0.67,0.529
					c0.066-0.008,0.127-0.026,0.184-0.052l0.451,0.234c-0.251,0.554-0.433,1.139-0.539,1.744l0.746,0.132
					c0.23-1.306,0.85-2.507,1.792-3.473L260.104,479.809z"/>
				<path id="XMLID_345_" style="fill:#1D262D;" d="M265.592,477.507c-0.171,0-0.341,0.006-0.51,0.017l-0.074-0.626
					c0.188-0.149,0.296-0.389,0.266-0.645c-0.046-0.393-0.402-0.674-0.795-0.628c-0.393,0.046-0.674,0.402-0.628,0.795
					c0.03,0.254,0.189,0.461,0.404,0.564l0.074,0.624c-0.714,0.116-1.403,0.332-2.06,0.646l0.327,0.684
					c0.934-0.447,1.942-0.673,2.995-0.673c0.496,0,0.993,0.053,1.475,0.158l0.161-0.741
					C266.692,477.566,266.142,477.507,265.592,477.507z"/>
				<path id="XMLID_344_" style="fill:#1D262D;" d="M272.194,480.054c0.331-0.041,0.566-0.342,0.526-0.672
					c-0.04-0.331-0.341-0.566-0.672-0.526c-0.309,0.038-0.535,0.304-0.53,0.609l-0.416,0.363c-0.418-0.43-0.889-0.813-1.408-1.139
					l-0.404,0.641c1.134,0.715,2.021,1.726,2.563,2.925l0.69-0.313c-0.251-0.554-0.568-1.072-0.942-1.545l0.402-0.351
					C272.065,480.059,272.129,480.063,272.194,480.054z"/>
				<path id="XMLID_343_" style="fill:#1D262D;" d="M265.044,487.716c-0.386,0.023-0.775,0.035-1.157,0.035
					c-0.88,0-1.733-0.061-2.478-0.179c-0.39-0.062-0.846-0.155-1.27-0.292c1.046,1.861,3.069,3.125,5.388,3.125
					c2.855,0,5.262-1.916,5.95-4.504c-0.682,0.449-1.505,0.825-2.459,1.123C267.839,487.391,266.463,487.63,265.044,487.716z"/>
				<path id="XMLID_339_" style="fill:#1D262D;" d="M265.592,479.023c-3.352,0-6.08,2.666-6.08,5.944
					c0,0.426,0.046,0.849,0.137,1.261c0.673,0.483,2.706,0.89,5.348,0.731c2.879-0.173,5.297-0.957,6.672-2.159
					c-0.006-0.195-0.021-0.39-0.045-0.582C271.244,481.257,268.65,479.023,265.592,479.023z M263.432,485.538
					c-1.02,0-1.85-0.83-1.85-1.85c0-1.02,0.83-1.85,1.85-1.85c1.02,0,1.85,0.83,1.85,1.85
					C265.282,484.708,264.452,485.538,263.432,485.538z M268.17,484.63c-0.75,0-1.36-0.61-1.36-1.36c0-0.75,0.61-1.361,1.36-1.361
					c0.75,0,1.361,0.61,1.361,1.361C269.53,484.02,268.92,484.63,268.17,484.63z"/>
			</g>
			<path id="XMLID_336_" style="fill:#1D262D;" d="M281.595,480.891c-0.295-0.116-0.805-0.309-1.382-0.237
				c-0.551,0.069-0.844,0.341-0.844,1.007v0.866h2.228v1.717h-2.228v5.455h-1.932v-5.455h-1.34v-1.717h1.34v-0.888
				c0-1.68,0.896-2.783,2.568-2.783c0.643,0,1.157,0.122,1.59,0.308L281.595,480.891z"/>
			<path id="XMLID_334_" style="fill:#1D262D;" d="M286.298,484.223c-0.177-0.03-0.358-0.046-0.526-0.046
				c-0.895,0-1.51,0.548-1.51,1.613v3.908h-1.932v-7.172h1.873v0.785c0.451-0.673,1.14-0.977,2.021-0.977
				c0.414,0,0.848,0.127,1.094,0.337L286.298,484.223z"/>
			<path id="XMLID_331_" style="fill:#1D262D;" d="M293.965,486.101c0,0.222-0.015,0.489-0.037,0.651h-5.085
				c0.207,1.036,0.933,1.488,1.843,1.488c0.622,0,1.295-0.252,1.813-0.688l1.133,1.243c-0.814,0.748-1.85,1.088-3.057,1.088
				c-2.198,0-3.723-1.495-3.723-3.753c0-2.258,1.48-3.797,3.627-3.797C292.544,482.333,293.958,483.865,293.965,486.101z
				 M288.851,485.435h3.175c-0.177-0.918-0.733-1.436-1.562-1.436C289.554,483.999,289.021,484.546,288.851,485.435z"/>
			<path id="XMLID_328_" style="fill:#1D262D;" d="M301.618,486.101c0,0.222-0.015,0.489-0.037,0.651h-5.085
				c0.207,1.036,0.932,1.488,1.843,1.488c0.622,0,1.295-0.252,1.814-0.688l1.132,1.243c-0.814,0.748-1.85,1.088-3.057,1.088
				c-2.198,0-3.723-1.495-3.723-3.753c0-2.258,1.48-3.797,3.627-3.797C300.197,482.333,301.611,483.865,301.618,486.101z
				 M296.504,485.435h3.175c-0.178-0.918-0.733-1.436-1.562-1.436C297.207,483.999,296.674,484.546,296.504,485.435z"/>
			<path id="XMLID_325_" style="fill:#1D262D;" d="M309.964,486.108c0,2.154-1.495,3.775-3.471,3.775
				c-0.962,0-1.643-0.378-2.109-0.933v3.708h-1.924v-10.133h1.887v0.792c0.466-0.585,1.155-0.984,2.139-0.984
				C308.469,482.333,309.964,483.954,309.964,486.108z M304.287,486.108c0,1.132,0.747,1.976,1.843,1.976
				c1.14,0,1.85-0.881,1.85-1.976c0-1.095-0.711-1.976-1.85-1.976C305.035,484.132,304.287,484.976,304.287,486.108z"/>
			<path id="XMLID_322_" style="fill:#1D262D;" d="M313.067,480.18c0,0.696-0.54,1.229-1.236,1.229
				c-0.696,0-1.229-0.533-1.229-1.229c0-0.696,0.533-1.243,1.229-1.243C312.527,478.936,313.067,479.484,313.067,480.18z
				 M312.809,489.698h-1.932v-7.172h1.932V489.698z"/>
			<path id="XMLID_320_" style="fill:#1D262D;" d="M316.032,485.079l2.702-2.554h2.368l-3.479,3.375l3.501,3.797h-2.376
				l-2.716-2.901v2.901H314.1V479.04h1.932V485.079z"/>
		</g>
		<g>
			<path style="fill:#1D262D;" d="M184.412,489.633v-1.055c-0.527,0.718-1.391,1.23-2.387,1.23c-1.846,0-3.149-1.406-3.149-3.706
				c0-2.256,1.289-3.721,3.149-3.721c0.952,0,1.816,0.469,2.387,1.245v-3.765h1.099v9.77H184.412z M184.412,487.714v-3.208
				c-0.395-0.615-1.245-1.143-2.124-1.143c-1.421,0-2.27,1.172-2.27,2.739c0,1.567,0.85,2.724,2.27,2.724
				C183.168,488.827,184.017,488.329,184.412,487.714z"/>
			<path style="fill:#1D262D;" d="M186.932,486.088c0-2.051,1.465-3.706,3.486-3.706c2.139,0,3.398,1.67,3.398,3.794v0.279h-5.727
				c0.088,1.333,1.025,2.446,2.549,2.446c0.805,0,1.626-0.322,2.182-0.893l0.527,0.718c-0.703,0.703-1.655,1.084-2.812,1.084
				C188.44,489.809,186.932,488.3,186.932,486.088z M190.403,483.29c-1.509,0-2.256,1.274-2.314,2.358h4.643
				C192.718,484.594,192.015,483.29,190.403,483.29z"/>
			<path style="fill:#1D262D;" d="M194.607,488.695l0.571-0.791c0.469,0.542,1.362,1.011,2.329,1.011c1.084,0,1.67-0.513,1.67-1.216
				c0-1.714-4.38-0.659-4.38-3.281c0-1.098,0.952-2.036,2.636-2.036c1.201,0,2.051,0.454,2.622,1.025l-0.513,0.762
				c-0.424-0.513-1.201-0.894-2.109-0.894c-0.967,0-1.567,0.483-1.567,1.113c0,1.553,4.38,0.527,4.38,3.281
				c0,1.187-0.952,2.138-2.783,2.138C196.306,489.809,195.325,489.457,194.607,488.695z"/>
			<path style="fill:#1D262D;" d="M201.477,480.815c0-0.41,0.337-0.747,0.732-0.747c0.41,0,0.747,0.337,0.747,0.747
				c0,0.41-0.337,0.732-0.747,0.732C201.814,481.547,201.477,481.225,201.477,480.815z M201.667,489.633v-7.075h1.099v7.075H201.667
				z"/>
			<path style="fill:#1D262D;" d="M204.582,491.449l0.556-0.82c0.586,0.703,1.289,0.967,2.3,0.967c1.172,0,2.27-0.571,2.27-2.124
				v-1.011c-0.513,0.718-1.377,1.26-2.373,1.26c-1.845,0-3.149-1.377-3.149-3.662c0-2.27,1.289-3.676,3.149-3.676
				c0.952,0,1.802,0.469,2.373,1.245v-1.069h1.098v6.87c0,2.344-1.641,3.076-3.369,3.076
				C206.237,492.504,205.417,492.269,204.582,491.449z M209.709,487.597v-3.091c-0.381-0.615-1.23-1.143-2.109-1.143
				c-1.421,0-2.27,1.128-2.27,2.695c0,1.553,0.849,2.695,2.27,2.695C208.478,488.754,209.328,488.212,209.709,487.597z"/>
			<path style="fill:#1D262D;" d="M217.413,489.633v-4.629c0-1.245-0.63-1.641-1.582-1.641c-0.865,0-1.685,0.527-2.095,1.099v5.17
				h-1.099v-7.075h1.099v1.025c0.498-0.586,1.465-1.201,2.519-1.201c1.48,0,2.256,0.747,2.256,2.285v4.966H217.413z"/>
			<path style="fill:#1D262D;" d="M219.932,486.088c0-2.051,1.465-3.706,3.486-3.706c2.139,0,3.398,1.67,3.398,3.794v0.279h-5.727
				c0.088,1.333,1.025,2.446,2.549,2.446c0.806,0,1.626-0.322,2.183-0.893l0.527,0.718c-0.703,0.703-1.655,1.084-2.812,1.084
				C221.441,489.809,219.932,488.3,219.932,486.088z M223.404,483.29c-1.509,0-2.256,1.274-2.314,2.358h4.643
				C225.718,484.594,225.015,483.29,223.404,483.29z"/>
			<path style="fill:#1D262D;" d="M233.35,489.633v-1.055c-0.527,0.718-1.392,1.23-2.388,1.23c-1.846,0-3.149-1.406-3.149-3.706
				c0-2.256,1.289-3.721,3.149-3.721c0.952,0,1.817,0.469,2.388,1.245v-3.765h1.098v9.77H233.35z M233.35,487.714v-3.208
				c-0.396-0.615-1.245-1.143-2.124-1.143c-1.421,0-2.27,1.172-2.27,2.739c0,1.567,0.849,2.724,2.27,2.724
				C232.105,488.827,232.954,488.329,233.35,487.714z"/>
			<path style="fill:#1D262D;" d="M239.692,489.633v-9.77h1.098v3.765c0.572-0.776,1.421-1.245,2.388-1.245
				c1.845,0,3.149,1.465,3.149,3.721c0,2.299-1.304,3.706-3.149,3.706c-0.996,0-1.86-0.513-2.388-1.23v1.055H239.692z
				 M242.9,488.827c1.436,0,2.285-1.157,2.285-2.724c0-1.568-0.85-2.739-2.285-2.739c-0.864,0-1.728,0.527-2.109,1.143v3.208
				C241.171,488.329,242.036,488.827,242.9,488.827z"/>
			<path style="fill:#1D262D;" d="M247.528,491.405c0.161,0.073,0.425,0.117,0.601,0.117c0.483,0,0.805-0.161,1.055-0.747
				l0.469-1.069l-2.959-7.148h1.187l2.358,5.801l2.344-5.801h1.201l-3.545,8.51c-0.425,1.025-1.143,1.421-2.08,1.435
				c-0.234,0-0.601-0.044-0.806-0.103L247.528,491.405z"/>
		</g>
	</g>
</g>
</svg>
